HIERARCHY
ROOT Hips
{
	OFFSET 45.640099 -7.856596 95.456001
	CHANNELS 6 Xposition Yposition Zposition Xrotation Yrotation Zrotation
	JOINT spine
	{
		OFFSET 0.000000 -0.458068 7.965683
		CHANNELS 3 Xrotation Yrotation Zrotation
		JOINT spine1
		{
			OFFSET 0.000000 -0.000001 10.243103
			CHANNELS 3 Xrotation Yrotation Zrotation
			JOINT spine2
			{
				OFFSET 0.000000 -0.000002 9.814751
				CHANNELS 3 Xrotation Yrotation Zrotation
				JOINT Neck
				{
					OFFSET 0.000000 -1.201384 25.198593
					CHANNELS 3 Xrotation Yrotation Zrotation
					JOINT Head
					{
						OFFSET 0.000000 -0.000002 7.613144
						CHANNELS 3 Xrotation Yrotation Zrotation
						End Site
						{
							OFFSET 0.000000 6.077328 18.428101
						}
					}
				}
				JOINT RightShoulder
				{
					OFFSET -4.132698 0.575449 10.599197
					CHANNELS 3 Xrotation Yrotation Zrotation
					JOINT RightArm
					{
						OFFSET 0.000000 -0.000002 13.901794
						CHANNELS 3 Xrotation Yrotation Zrotation
						JOINT RightArmRoll
						{
							OFFSET 0.000000 -0.000001 7.017883
							CHANNELS 3 Xrotation Yrotation Zrotation
							JOINT RightForeArm
							{
								OFFSET 0.000000 -0.000003 20.440598
								CHANNELS 3 Xrotation Yrotation Zrotation
								JOINT RightForeArmRoll
								{
									OFFSET 0.000000 -0.000001 7.875153
									CHANNELS 3 Xrotation Yrotation Zrotation
									JOINT RightHand
									{
										OFFSET 0.000000 -0.000002 15.803696
										CHANNELS 3 Xrotation Yrotation Zrotation
										End Site
										{
											OFFSET 0.000000 0.000000 0.100006
										}
									}
								}
							}
						}
					}
				}
				JOINT LeftShoulder
				{
					OFFSET 4.132698 0.575449 10.599197
					CHANNELS 3 Xrotation Yrotation Zrotation
					JOINT LeftArm
					{
						OFFSET 0.000000 -0.000002 13.901794
						CHANNELS 3 Xrotation Yrotation Zrotation
						JOINT LeftArmRoll
						{
							OFFSET 0.000000 -0.000001 7.017883
							CHANNELS 3 Xrotation Yrotation Zrotation
							JOINT LeftForeArm
							{
								OFFSET 0.000000 -0.000003 20.440598
								CHANNELS 3 Xrotation Yrotation Zrotation
								JOINT LeftForeArmRoll
								{
									OFFSET 0.000000 -0.000001 7.875153
									CHANNELS 3 Xrotation Yrotation Zrotation
									JOINT LeftHand
									{
										OFFSET 0.000000 -0.000002 15.803696
										CHANNELS 3 Xrotation Yrotation Zrotation
										End Site
										{
											OFFSET 0.000000 0.000000 0.100006
										}
									}
								}
							}
						}
					}
				}
			}
		}
	}
	JOINT RightUpLeg
	{
		OFFSET -7.060478 1.086091 -1.294701
		CHANNELS 3 Xrotation Yrotation Zrotation
		JOINT RightUpLegRoll
		{
			OFFSET 0.000000 -0.000003 18.530800
			CHANNELS 3 Xrotation Yrotation Zrotation
			JOINT RightLeg
			{
				OFFSET 0.000000 0.000004 -22.947601
				CHANNELS 3 Xrotation Yrotation Zrotation
				JOINT RightLegRoll
				{
					OFFSET 0.000000 -0.000004 23.022598
					CHANNELS 3 Xrotation Yrotation Zrotation
					JOINT RightFoot
					{
						OFFSET 0.000000 -0.000003 19.162498
						CHANNELS 3 Xrotation Yrotation Zrotation
						JOINT RightToeBase
						{
							OFFSET 0.000000 -0.000003 16.018799
							CHANNELS 3 Xrotation Yrotation Zrotation
							End Site
							{
								OFFSET 0.006790 0.894205 7.757828
							}
						}
					}
				}
			}
		}
	}
	JOINT LeftUpLeg
	{
		OFFSET 7.060478 1.086091 -1.294701
		CHANNELS 3 Xrotation Yrotation Zrotation
		JOINT LeftUpLegRoll
		{
			OFFSET 0.000000 -0.000003 18.530899
			CHANNELS 3 Xrotation Yrotation Zrotation
			JOINT LeftLeg
			{
				OFFSET 0.000000 -0.000003 22.947495
				CHANNELS 3 Xrotation Yrotation Zrotation
				JOINT LeftLegRoll
				{
					OFFSET 0.000000 -0.000004 23.235504
					CHANNELS 3 Xrotation Yrotation Zrotation
					JOINT LeftFoot
					{
						OFFSET 0.000000 -0.000003 18.949600
						CHANNELS 3 Xrotation Yrotation Zrotation
						JOINT LeftToeBase
						{
							OFFSET 0.000000 -0.000002 16.018799
							CHANNELS 3 Xrotation Yrotation Zrotation
							End Site
							{
								OFFSET -0.030430 0.894205 7.757812
							}
						}
					}
				}
			}
		}
	}
}
MOTION
Frames: 7
Frame Time: 0.041667
47.799698 -9.865896 94.043098 0.679952 7.717951 80.005182 -1.533324 0.105987 0.016622 0.936135 0.211694 0.035021 2.581197 0.212096 0.032439 -31.088234 38.877362 16.804994 22.567398 -31.301022 8.820439 8.911734 -30.951795 16.282090 -40.877111 -164.884906 -58.748622 -0.000003 0.000014 -0.000001 20.011399 -11.529405 0.405421 -0.000009 0.000002 -3.007299 -5.000303 -7.998690 0.000177 -66.937848 60.993794 77.432140 -84.729111 116.124650 85.094800 -0.000001 0.000000 -0.000001 20.924645 13.611401 -1.682250 -0.000002 -0.000007 3.000010 -4.999768 7.998968 -0.000037 -5.729950 -184.260704 -0.827638 -179.999991 0.000005 -1.268005 164.886463 -1.690466 -0.744473 0.000002 0.000000 0.664740 78.088597 7.921145 -2.115436 29.585077 -7.335423 0.522902 -30.460069 177.091669 5.898378 -0.000004 -0.000004 -0.745879 -15.753462 -1.886983 0.137247 -0.000002 0.000002 -0.273455 69.856129 -6.946409 -1.931503 25.456897 7.351458 0.000003 
47.804600 -9.864917 94.044792 0.669733 7.673329 80.045671 -1.515570 0.102014 0.020661 0.971640 0.203683 0.043005 2.616696 0.204181 0.040517 -30.909656 38.869186 16.745981 22.442074 -31.321554 8.807095 8.920873 -31.056068 16.267421 -40.744961 -164.587683 -58.945229 -0.000006 0.000015 -0.000001 19.938249 -11.949454 0.484977 -0.000014 0.000003 -3.007298 -5.000303 -7.998695 0.000170 -66.816073 60.972409 77.303623 -84.597794 115.994220 84.912557 0.000000 0.000001 0.000000 20.786917 13.607765 -1.669498 -0.000003 -0.000007 3.000011 -4.999771 7.998969 -0.000037 -5.655396 -184.264242 -0.821596 -179.999991 0.000005 -1.268005 164.931146 -1.694687 -0.743198 0.000003 0.000001 0.663662 78.085140 7.923943 -2.124603 29.574562 -7.335461 0.521419 -30.427403 177.101915 5.898802 -0.000004 -0.000005 -0.746007 -15.778408 -1.890322 0.137187 -0.000001 0.000002 -0.274618 69.865001 -6.945984 -1.932371 25.456894 7.351456 0.000003 
47.792801 -9.868989 94.042496 0.660220 7.628400 80.083654 -1.498093 0.098257 0.025007 1.006587 0.196101 0.051610 2.651644 0.196703 0.049210 -30.729895 38.860095 16.685705 22.326707 -31.341795 8.795902 8.932182 -31.161881 16.255097 -40.618585 -164.285666 -59.130409 -0.000004 0.000010 -0.000003 19.875601 -12.352545 0.561787 -0.000012 0.000003 -3.007297 -5.000303 -7.998695 0.000173 -66.700042 60.951652 77.181220 -84.473635 115.865130 84.736577 -0.000000 0.000001 -0.000001 20.647773 13.604334 -1.656768 -0.000000 -0.000007 3.000010 -4.999767 7.998969 -0.000037 -5.580075 -184.267780 -0.815795 -179.999991 0.000005 -1.269003 164.976744 -1.697951 -0.740633 0.000001 -0.000000 0.662550 78.081220 7.926599 -2.133451 29.564153 -7.335483 0.519963 -30.390947 177.112051 5.897343 -0.000002 -0.000004 -0.746204 -15.798139 -1.892650 0.137234 -0.000002 0.000003 -0.275388 69.871032 -6.945616 -1.933326 25.456899 7.351455 0.000003 
47.801796 -9.872486 94.039894 0.651472 7.583384 80.119123 -1.480963 0.094725 0.029662 1.040845 0.188962 0.060842 2.685904 0.189675 0.058525 -30.548865 38.850789 16.624187 22.221501 -31.362101 8.786793 8.946047 -31.269200 16.246057 -40.498049 -163.978854 -59.302230 -0.000005 0.000013 0.000000 19.824778 -12.736883 0.635827 -0.000009 0.000003 -3.007299 -5.000298 -7.998693 0.000171 -66.590683 60.931653 77.065994 -84.357590 115.737241 84.567372 -0.000000 0.000001 0.000001 20.506687 13.600968 -1.643974 -0.000001 -0.000007 3.000012 -4.999770 7.998969 -0.000037 -5.504240 -184.270308 -0.810467 -179.999991 0.000005 -1.270000 165.023340 -1.701213 -0.738016 0.000000 0.000000 0.661411 78.076787 7.929197 -2.141867 29.553740 -7.335515 0.518513 -30.350629 177.120384 5.894827 -0.000004 -0.000005 -0.746481 -15.811659 -1.893821 0.137399 -0.000002 0.000003 -0.275707 69.874106 -6.945293 -1.934076 25.456895 7.351456 0.000005 
47.815701 -9.880699 94.046394 0.643888 7.537699 80.151730 -1.463993 0.091554 0.034675 1.074785 0.182540 0.070799 2.719855 0.183373 0.068557 -30.369442 38.840936 16.562451 22.130330 -31.383558 8.781046 8.963127 -31.377599 16.240991 -40.383637 -163.668968 -59.457767 -0.000007 0.000014 -0.000001 19.781864 -13.100758 0.707487 -0.000009 0.000000 -3.007301 -5.000307 -7.998694 0.000173 -66.489009 60.911811 76.959197 -84.252002 115.611812 84.407812 0.000000 0.000001 0.000000 20.363589 13.598046 -1.631127 -0.000002 -0.000006 3.000010 -4.999771 7.998970 -0.000037 -5.427202 -184.272848 -0.804764 -179.999991 0.000005 -1.270998 165.070946 -1.704493 -0.735383 0.000001 -0.000000 0.660237 78.072245 7.931635 -2.149991 29.543133 -7.335542 0.517048 -30.305344 177.127678 5.891172 -0.000003 -0.000005 -0.746831 -15.818867 -1.893957 0.137656 -0.000002 0.000003 -0.275514 69.873703 -6.945007 -1.935049 25.456895 7.351455 0.000004 
47.819000 -9.884946 94.047890 0.637689 7.490659 80.181360 -1.446945 0.088835 0.040076 1.108885 0.177023 0.081538 2.753943 0.177985 0.079363 -30.193623 38.830168 16.501397 22.056018 -31.406456 8.779793 8.983401 -31.487056 16.239704 -40.275829 -163.357716 -59.597478 -0.000006 0.000012 -0.000002 19.742515 -13.445495 0.777602 -0.000012 0.000002 -3.007301 -5.000297 -7.998696 0.000171 -66.395108 60.891259 76.861130 -84.158408 115.489661 84.260342 0.000000 0.000000 0.000000 20.218461 13.596511 -1.618346 -0.000000 -0.000007 3.000009 -4.999769 7.998969 -0.000037 -5.348135 -184.273408 -0.798166 -179.999991 0.000005 -1.271995 165.119741 -1.707784 -0.733705 0.000002 0.000001 0.659017 78.067833 7.933903 -2.157745 29.532013 -7.335575 0.515502 -30.254347 177.134836 5.886412 -0.000004 -0.000005 -0.747247 -15.820462 -1.893335 0.137965 -0.000003 0.000003 -0.274840 69.870233 -6.944807 -1.936032 25.456899 7.351456 0.000003 
47.821999 -9.888059 94.049500 0.632632 7.442353 80.207956 -1.429841 0.086511 0.045840 1.143075 0.172293 0.093009 2.788132 0.173393 0.090891 -30.020420 38.818110 16.440701 21.996938 -31.430065 8.782643 9.006361 -31.597807 16.241667 -40.174343 -163.045112 -59.723659 -0.000003 0.000015 0.000001 19.707135 -13.772998 0.846456 -0.000010 0.000002 -3.007301 -5.000300 -7.998695 0.000174 -66.308194 60.870168 76.770855 -84.075223 115.370433 84.123424 -0.000000 0.000001 -0.000000 20.071783 13.596039 -1.605587 -0.000003 -0.000007 3.000011 -4.999769 7.998969 -0.000037 -5.267126 -184.271960 -0.790856 -179.999991 0.000005 -1.271994 165.169738 -1.711072 -0.730973 0.000001 0.000000 0.657760 78.063304 7.936004 -2.164910 29.520685 -7.335604 0.513928 -30.198469 177.141011 5.881028 -0.000007 -0.000005 -0.747722 -15.817145 -1.892010 0.138330 -0.000002 0.000002 -0.273753 69.864222 -6.944600 -1.937071 25.456895 7.351456 0.000004 
